<svg xmlns="http://www.w3.org/2000/svg" viewBox="0 0 50.26 41.2">
  <defs>
    <style>
      .cls-1 {
        fill: #4b3927;
      }

      .cls-2 {
        fill: #b39471;
      }

      .cls-3 {
        fill: #5c4736;
      }

      .cls-4, .cls-8 {
        fill: #201600;
      }

      .cls-5 {
        fill: #91372a;
      }

      .cls-6 {
        fill: #8d7559;
      }

      .cls-11, .cls-7 {
        fill: #fff343;
      }

      .cls-8 {
        opacity: 0.21;
      }

      .cls-27, .cls-9 {
        fill: none;
        stroke-linecap: round;
      }

      .cls-9 {
        stroke: #30583a;
        stroke-width: 0.25px;
      }

      .cls-10, .cls-11, .cls-12, .cls-13, .cls-14, .cls-15, .cls-16, .cls-17, .cls-18, .cls-27, .cls-9 {
        stroke-miterlimit: 10;
      }

      .cls-10 {
        fill: #7d67a4;
      }

      .cls-10, .cls-11, .cls-12, .cls-13, .cls-14, .cls-15, .cls-16, .cls-17, .cls-18 {
        stroke: #201600;
        stroke-width: 0.01px;
      }

      .cls-12 {
        fill: #fffdde;
      }

      .cls-13 {
        fill: #c64d45;
      }

      .cls-14 {
        fill: #a0af56;
      }

      .cls-15 {
        fill: #4e5890;
      }

      .cls-16 {
        fill: #eeb644;
      }

      .cls-17 {
        fill: #4ab2c1;
      }

      .cls-18 {
        fill: #db769a;
      }

      .cls-19 {
        fill: #8b7458;
      }

      .cls-20 {
        fill: #473421;
      }

      .cls-21 {
        fill: #392710;
      }

      .cls-22 {
        fill: #bdadd4;
      }

      .cls-23 {
        fill: #d0bcdb;
      }

      .cls-24 {
        fill: #e1d1e7;
      }

      .cls-25 {
        fill: #9f90c3;
      }

      .cls-26 {
        fill: #5f9663;
      }

      .cls-27 {
        stroke: #3c5f42;
        stroke-width: 0.05px;
      }
    </style>
  </defs>
  <title>chel 2</title>
  <g id="Слой_2" data-name="Слой 2">
    <g id="chel_2" data-name="chel 2">
      <g>
        <g>
          <g>
            <rect class="cls-1" x="14.75" y="30.02" width="5.54" height="11.18" rx="2.77"/>
            <rect class="cls-1" x="30.18" y="30.02" width="5.54" height="11.18" rx="2.77"/>
            <g>
              <rect class="cls-1" x="38.61" y="16.74" width="3.99" height="13.53" rx="2" transform="translate(14.23 62.31) rotate(-85.87)"/>
              <path class="cls-2" d="M45.5,21.86A2,2,0,0,1,47.35,24h0a2,2,0,0,1-2.13,1.85"/>
            </g>
            <rect class="cls-3" x="9.43" y="4.57" width="31.61" height="31.61" rx="6.79"/>
            <path class="cls-3" d="M38,5.7S20.88-8.08,0,10.89c8.21,0,10.26,5.34,10.26,5.34Z"/>
            <rect class="cls-2" x="19.16" y="12.11" width="20.74" height="12.84" rx="6.42"/>
            <rect class="cls-4" x="24.87" y="14.97" width="1.5" height="5.41" rx="0.75"/>
            <rect class="cls-4" x="33.88" y="14.97" width="1.5" height="5.41" rx="0.75"/>
            <rect class="cls-5" x="27.85" y="22.4" width="4.66" height="1.44" rx="0.72"/>
            <rect class="cls-6" x="29.9" y="17.2" width="1.27" height="3.53" rx="0.64"/>
            <path class="cls-7" d="M22.06,13.16c2.14-1.41,4.2-1,7.73-1.05s5.34-.25,7.16,1Z"/>
            <g>
              <rect class="cls-1" x="12.75" y="18.18" width="3.99" height="13.53" rx="2"/>
              <path class="cls-2" d="M16.74,29.72a2,2,0,0,1-2,2h0a2,2,0,0,1-2-2"/>
            </g>
          </g>
          <path class="cls-8" d="M22.06,13.16s15.31,3.29,13.82,10.35c7.16-5.44.56-10.37.56-10.37"/>
          <path class="cls-7" d="M37,13.12s7.35,4.57-.8,10.21c2.42-7.84-13.58-10.18-13.58-10.18"/>
          <g>
            <path class="cls-9" d="M9.43,14.86c.61-2.48,15.38-4.57,16.94-5.25,0,0,13.72-.07,14.65,1.6"/>
            <path class="cls-9" d="M16.58,10.08s2.7,2.72,4,2.46"/>
            <path class="cls-9" d="M22.86,10.43s3.35-3,5-2.6"/>
            <path class="cls-9" d="M32.63,9.4s.49-.3.76.53,1.87,1,2.06,1.15"/>
            <g>
              <path class="cls-10" d="M20.66,12.7s.53.35.12.66-.21-.62-.21-.62"/>
              <path class="cls-10" d="M20.68,12.59s.64,0,.47.48-.52-.4-.52-.4"/>
              <path class="cls-10" d="M20.59,12.68s.24-.58.62-.25-.57.33-.57.33"/>
              <path class="cls-10" d="M20.59,12.42s.18-.61.59-.32-.53.39-.53.39"/>
              <path class="cls-10" d="M20.57,12.83s.21.6-.29.6.19-.62.19-.62"/>
              <path class="cls-10" d="M20.43,12.85s-.24.6-.62.26.56-.33.56-.33"/>
              <path class="cls-10" d="M20.23,12.77s-.57.28-.64-.22.65.12.65.12"/>
              <path class="cls-10" d="M20.15,12.6s-.63-.09-.4-.54.46.47.46.47"/>
              <path class="cls-10" d="M20.23,12.51s-.55-.33-.16-.65.24.61.24.61"/>
              <path class="cls-10" d="M20.35,12.43s-.43-.47,0-.67.06.65.06.65"/>
              <path class="cls-10" d="M20.41,12.35s-.12-.63.39-.55-.3.58-.3.58"/>
              <circle class="cls-11" cx="20.44" cy="12.6" r="0.42"/>
            </g>
            <g>
              <path class="cls-12" d="M16.7,10.15s.53.35.13.66-.21-.62-.21-.62"/>
              <path class="cls-12" d="M16.73,10s.64,0,.47.49-.52-.4-.52-.4"/>
              <path class="cls-12" d="M16.63,10.14s.25-.59.63-.25-.57.32-.57.32"/>
              <path class="cls-12" d="M16.64,9.87s.18-.61.59-.32-.53.39-.53.39"/>
              <path class="cls-12" d="M16.62,10.28s.21.6-.3.61.2-.63.2-.63"/>
              <path class="cls-12" d="M16.48,10.31s-.24.59-.62.25.56-.33.56-.33"/>
              <path class="cls-12" d="M16.28,10.22s-.57.28-.64-.22.65.12.65.12"/>
              <path class="cls-12" d="M16.2,10.05s-.63-.09-.4-.54.46.47.46.47"/>
              <path class="cls-12" d="M16.27,10s-.54-.33-.15-.65.24.61.24.61"/>
              <path class="cls-12" d="M16.4,9.88s-.43-.47,0-.67.06.65.06.65"/>
              <path class="cls-12" d="M16.46,9.8s-.12-.63.38-.55-.29.58-.29.58"/>
              <circle class="cls-11" cx="16.49" cy="10.06" r="0.42"/>
            </g>
            <g>
              <path class="cls-13" d="M11.57,13s.53.36.12.66-.21-.62-.21-.62"/>
              <path class="cls-13" d="M11.59,12.9s.64,0,.47.48-.52-.4-.52-.4"/>
              <path class="cls-13" d="M11.49,13s.25-.59.63-.25-.57.33-.57.33"/>
              <path class="cls-13" d="M11.5,12.73s.18-.62.59-.32-.53.39-.53.39"/>
              <path class="cls-13" d="M11.48,13.14s.21.6-.3.6.2-.62.2-.62"/>
              <path class="cls-13" d="M11.34,13.16s-.24.59-.62.26.56-.33.56-.33"/>
              <path class="cls-13" d="M11.14,13.07s-.57.29-.64-.21.65.12.65.12"/>
              <path class="cls-13" d="M11.06,12.91s-.63-.09-.4-.54.46.46.46.46"/>
              <path class="cls-13" d="M11.14,12.82s-.55-.33-.16-.65.24.61.24.61"/>
              <path class="cls-13" d="M11.26,12.74s-.43-.47,0-.67.06.65.06.65"/>
              <path class="cls-13" d="M11.32,12.66s-.12-.63.39-.56-.3.59-.3.59"/>
              <circle class="cls-11" cx="11.35" cy="12.91" r="0.42"/>
            </g>
            <g>
              <path class="cls-14" d="M35.29,11.14s.53.36.12.67-.21-.63-.21-.63"/>
              <path class="cls-14" d="M35.31,11s.64,0,.47.48-.52-.4-.52-.4"/>
              <path class="cls-14" d="M35.22,11.13s.24-.59.62-.25-.57.33-.57.33"/>
              <path class="cls-14" d="M35.22,10.87s.18-.61.59-.32-.53.39-.53.39"/>
              <path class="cls-14" d="M35.2,11.28s.21.6-.29.6.19-.62.19-.62"/>
              <path class="cls-14" d="M35.06,11.3s-.24.59-.62.26.56-.33.56-.33"/>
              <path class="cls-14" d="M34.86,11.22s-.57.28-.64-.22.65.12.65.12"/>
              <path class="cls-14" d="M34.78,11.05s-.63-.09-.4-.54.46.47.46.47"/>
              <path class="cls-14" d="M34.86,11s-.55-.33-.16-.65.24.61.24.61"/>
              <path class="cls-14" d="M35,10.88s-.44-.47,0-.67.06.65.06.65"/>
              <path class="cls-14" d="M35,10.8s-.12-.63.39-.56-.3.59-.3.59"/>
              <circle class="cls-11" cx="35.07" cy="11.05" r="0.42"/>
            </g>
            <g>
              <path class="cls-15" d="M41.19,11.12s.52.36.12.66-.21-.62-.21-.62"/>
              <path class="cls-15" d="M41.21,11s.64,0,.47.48-.52-.4-.52-.4"/>
              <path class="cls-15" d="M41.11,11.11s.25-.59.63-.25-.57.33-.57.33"/>
              <path class="cls-15" d="M41.12,10.84s.18-.61.59-.31-.53.39-.53.39"/>
              <path class="cls-15" d="M41.1,11.26s.21.6-.3.6.2-.63.2-.63"/>
              <path class="cls-15" d="M41,11.28s-.24.59-.62.26.56-.34.56-.34"/>
              <path class="cls-15" d="M40.76,11.19s-.57.29-.64-.22.65.13.65.13"/>
              <path class="cls-15" d="M40.68,11s-.63-.09-.4-.54.46.46.46.46"/>
              <path class="cls-15" d="M40.75,10.94s-.54-.33-.15-.66.24.61.24.61"/>
              <path class="cls-15" d="M40.88,10.86s-.43-.47,0-.67.06.65.06.65"/>
              <path class="cls-15" d="M40.94,10.77s-.12-.62.38-.55-.29.59-.29.59"/>
              <circle class="cls-11" cx="40.97" cy="11.03" r="0.42"/>
            </g>
            <g>
              <path class="cls-16" d="M32.84,9.66s.53.35.13.66-.21-.62-.21-.62"/>
              <path class="cls-16" d="M32.87,9.56s.64,0,.47.48-.52-.4-.52-.4"/>
              <path class="cls-16" d="M32.77,9.65s.25-.59.63-.25-.57.33-.57.33"/>
              <path class="cls-16" d="M32.78,9.38s.18-.61.59-.31-.53.38-.53.38"/>
              <path class="cls-16" d="M32.75,9.79s.22.6-.29.61.2-.63.2-.63"/>
              <path class="cls-16" d="M32.62,9.82s-.24.59-.62.26.56-.34.56-.34"/>
              <path class="cls-16" d="M32.42,9.73s-.58.29-.64-.22.64.13.64.13"/>
              <path class="cls-16" d="M32.34,9.56s-.63-.08-.4-.54.46.47.46.47"/>
              <path class="cls-16" d="M32.41,9.47s-.54-.33-.15-.65.24.61.24.61"/>
              <path class="cls-16" d="M32.54,9.39s-.43-.46,0-.67.06.66.06.66"/>
              <path class="cls-16" d="M32.6,9.31s-.12-.62.38-.55-.29.59-.29.59"/>
              <circle class="cls-11" cx="32.63" cy="9.57" r="0.42"/>
            </g>
            <g>
              <path class="cls-17" d="M26.49,9.75s.53.36.12.66-.21-.62-.21-.62"/>
              <path class="cls-17" d="M26.51,9.65s.64,0,.47.48-.52-.4-.52-.4"/>
              <path class="cls-17" d="M26.42,9.74s.24-.59.62-.25-.57.33-.57.33"/>
              <path class="cls-17" d="M26.42,9.47s.18-.61.6-.31-.53.38-.53.38"/>
              <path class="cls-17" d="M26.4,9.88s.22.6-.29.61.2-.63.2-.63"/>
              <path class="cls-17" d="M26.26,9.91s-.23.59-.62.26.57-.34.57-.34"/>
              <path class="cls-17" d="M26.06,9.82s-.57.29-.63-.22.64.13.64.13"/>
              <path class="cls-17" d="M26,9.65s-.63-.08-.4-.53.47.46.47.46"/>
              <path class="cls-17" d="M26.06,9.57s-.55-.33-.15-.66.23.61.23.61"/>
              <path class="cls-17" d="M26.19,9.49s-.43-.47,0-.68.06.66.06.66"/>
              <path class="cls-17" d="M26.25,9.4s-.12-.62.38-.55-.29.59-.29.59"/>
              <circle class="cls-11" cx="26.28" cy="9.66" r="0.42"/>
            </g>
            <g>
              <path class="cls-18" d="M28,8s.53.36.12.66S28,8,28,8"/>
              <path class="cls-18" d="M28.07,7.88s.63,0,.46.48S28,8,28,8"/>
              <path class="cls-18" d="M28,8s.24-.59.62-.25-.57.33-.57.33"/>
              <path class="cls-18" d="M28,7.7s.18-.61.6-.31-.53.38-.53.38"/>
              <path class="cls-18" d="M28,8.11s.22.6-.29.61.2-.63.2-.63"/>
              <path class="cls-18" d="M27.81,8.14s-.23.59-.62.26.57-.34.57-.34"/>
              <path class="cls-18" d="M27.61,8.05S27,8.34,27,7.83s.64.13.64.13"/>
              <path class="cls-18" d="M27.54,7.88s-.64-.08-.41-.53.47.46.47.46"/>
              <path class="cls-18" d="M27.61,7.8s-.55-.33-.15-.66.24.61.24.61"/>
              <path class="cls-18" d="M27.74,7.72s-.43-.47,0-.68.06.66.06.66"/>
              <path class="cls-18" d="M27.8,7.63s-.12-.62.38-.55-.29.59-.29.59"/>
              <circle class="cls-11" cx="27.83" cy="7.89" r="0.42"/>
            </g>
          </g>
        </g>
        <g>
          <path class="cls-19" d="M34.12,25a4.59,4.59,0,0,1-9.18,0"/>
          <g>
            <rect class="cls-20" x="29.41" y="27.09" width="0.5" height="2.24" rx="0.25" transform="translate(28.64 -12.71) rotate(45)"/>
            <rect class="cls-20" x="29.41" y="27.09" width="0.5" height="2.24" rx="0.25" transform="translate(70.59 27.18) rotate(135)"/>
          </g>
          <g>
            <rect class="cls-20" x="29.41" y="24.91" width="0.5" height="2.24" rx="0.25" transform="translate(27.09 -13.35) rotate(45)"/>
            <rect class="cls-20" x="29.41" y="24.91" width="0.5" height="2.24" rx="0.25" transform="translate(69.05 23.46) rotate(135)"/>
          </g>
        </g>
      </g>
      <g>
        <rect class="cls-21" x="46.19" y="5.9" width="1.5" height="24.08" rx="0.75" transform="translate(1.73 -4.01) rotate(4.98)"/>
        <g>
          <path class="cls-22" d="M46,4.37,48.38.05a.11.11,0,0,1,.19,0l1.69,4.65L47.91,9a.19.19,0,0,1-.34,0L46,4.37"/>
          <polygon class="cls-23" points="48.51 0 47.37 4.18 48.85 4.93 48.51 0"/>
          <path class="cls-24" d="M50.26,4.74l-1.41.19L48.51,0a.1.1,0,0,1,.09.07Z"/>
          <path class="cls-23" d="M48.6.07A.1.1,0,0,0,48.51,0l.34,4.93,1.41-.19L47.89,9s-.06.09-.12.09,1.08-4.16,1.08-4.16"/>
          <path class="cls-25" d="M46,4.36l1.41-.18.29,4.9A.2.2,0,0,1,47.55,9L46,4.36"/>
        </g>
        <g>
          <path class="cls-26" d="M48.91,13.42a.79.79,0,1,1-1.17-1.05c.33-.37,1.34-1,1.67-.68S49.24,13.05,48.91,13.42Z"/>
          <path class="cls-27" d="M49.36,11.76s-1.45,1.11-1.55,1.6"/>
          <path class="cls-27" d="M48.07,12.93s.52.07.64-.09"/>
          <path class="cls-27" d="M48.62,12.37s-.14-.23,0-.39"/>
        </g>
        <g>
          <path class="cls-26" d="M46.25,16.31a.84.84,0,0,1,.15,1.18.86.86,0,0,1-1.2,0c-.37-.33-1-1.34-.67-1.67S45.88,16,46.25,16.31Z"/>
          <path class="cls-27" d="M44.59,15.86s1.11,1.45,1.6,1.55"/>
          <path class="cls-27" d="M45.76,17.15s.07-.52-.09-.64"/>
          <path class="cls-27" d="M45.2,16.6s-.23.14-.39,0"/>
        </g>
        <polygon class="cls-21" points="48.37 10.23 46.85 10.1 45.96 4.37 47.77 6.02 48.2 6.05 50.26 4.72 48.37 10.23"/>
      </g>
    </g>
  </g>
</svg>
