<svg xmlns="http://www.w3.org/2000/svg" viewBox="0 0 50.23 40.88">
  <defs>
    <style>
      .cls-1 {
        fill: #4b3927;
      }

      .cls-2 {
        fill: #b39471;
      }

      .cls-3 {
        fill: #5c4736;
      }

      .cls-20, .cls-4 {
        fill: #201600;
      }

      .cls-5 {
        fill: #91372a;
      }

      .cls-6 {
        fill: #8d7559;
      }

      .cls-7 {
        fill: #a9a2ba;
      }

      .cls-27, .cls-8 {
        fill: none;
        stroke-linecap: round;
      }

      .cls-8 {
        stroke: #30583a;
        stroke-width: 0.25px;
      }

      .cls-10, .cls-11, .cls-12, .cls-13, .cls-14, .cls-15, .cls-16, .cls-17, .cls-27, .cls-8, .cls-9 {
        stroke-miterlimit: 10;
      }

      .cls-9 {
        fill: #7d67a4;
      }

      .cls-10, .cls-11, .cls-12, .cls-13, .cls-14, .cls-15, .cls-16, .cls-17, .cls-9 {
        stroke: #201600;
        stroke-width: 0.01px;
      }

      .cls-10 {
        fill: #fff343;
      }

      .cls-11 {
        fill: #fffdde;
      }

      .cls-12 {
        fill: #c64d45;
      }

      .cls-13 {
        fill: #a0af56;
      }

      .cls-14 {
        fill: #4e5890;
      }

      .cls-15 {
        fill: #eeb644;
      }

      .cls-16 {
        fill: #4ab2c1;
      }

      .cls-17 {
        fill: #db769a;
      }

      .cls-18 {
        fill: #8b7458;
      }

      .cls-19 {
        fill: #473421;
      }

      .cls-20 {
        opacity: 0.31;
      }

      .cls-21 {
        fill: #392710;
      }

      .cls-22 {
        fill: #bdadd4;
      }

      .cls-23 {
        fill: #d0bcdb;
      }

      .cls-24 {
        fill: #e1d1e7;
      }

      .cls-25 {
        fill: #9f90c3;
      }

      .cls-26 {
        fill: #5f9663;
      }

      .cls-27 {
        stroke: #3c5f42;
        stroke-width: 0.05px;
      }
    </style>
  </defs>
  <title>chel 4</title>
  <g id="Слой_2" data-name="Слой 2">
    <g id="chel_4" data-name="chel 4">
      <g>
        <g>
          <g>
            <g>
              <rect class="cls-1" x="14.75" y="29.7" width="5.54" height="11.18" rx="2.77"/>
              <rect class="cls-1" x="30.18" y="29.7" width="5.54" height="11.18" rx="2.77"/>
              <g>
                <rect class="cls-1" x="38.77" y="15.63" width="3.99" height="13.53" rx="2" transform="matrix(0.07, -1, 1, 0.07, 15.55, 61.48)"/>
                <path class="cls-2" d="M45.67,20.74a2,2,0,0,1,1.84,2.13h0a2,2,0,0,1-2.13,1.85"/>
              </g>
              <rect class="cls-3" x="9.43" y="4.25" width="31.61" height="31.61" rx="4.37"/>
              <path class="cls-3" d="M38.57,4.69S20.88-8.39,0,10.58c8.21,0,10.26,5.34,10.26,5.34Z"/>
              <rect class="cls-2" x="19.16" y="11.79" width="20.74" height="12.84" rx="6.42"/>
              <rect class="cls-4" x="33.88" y="14.65" width="1.5" height="5.41" rx="0.75"/>
              <rect class="cls-5" x="27.85" y="22.09" width="4.66" height="1.44" rx="0.72"/>
              <rect class="cls-6" x="29.9" y="16.88" width="1.27" height="3.53" rx="0.64"/>
              <path class="cls-7" d="M22.06,12.85c2.14-1.42,4.2-1,7.73-1.06s5.34-.25,7.16,1Z"/>
              <g>
                <rect class="cls-1" x="12.75" y="17.86" width="3.99" height="13.53" rx="2"/>
                <path class="cls-2" d="M16.74,29.4a2,2,0,0,1-2,2h0a2,2,0,0,1-2-2"/>
              </g>
              <rect class="cls-4" x="24.87" y="14.65" width="1.5" height="5.41" rx="0.75"/>
            </g>
            <g>
              <path class="cls-8" d="M9.43,14.54C10,12.07,24.81,10,26.37,9.29c0,0,13.72-.06,14.65,1.61"/>
              <path class="cls-8" d="M16.58,9.77s2.7,2.71,4,2.46"/>
              <path class="cls-8" d="M22.86,10.11s3.35-3,5-2.6"/>
              <path class="cls-8" d="M32.63,9.09s.49-.3.76.52,1.87,1,2.06,1.15"/>
              <g>
                <path class="cls-9" d="M20.66,12.38s.53.36.12.66-.21-.62-.21-.62"/>
                <path class="cls-9" d="M20.68,12.28s.64,0,.47.48-.52-.4-.52-.4"/>
                <path class="cls-9" d="M20.59,12.37s.24-.59.62-.25-.57.33-.57.33"/>
                <path class="cls-9" d="M20.59,12.1s.18-.61.59-.31-.53.39-.53.39"/>
                <path class="cls-9" d="M20.57,12.51s.21.6-.29.61.19-.63.19-.63"/>
                <path class="cls-9" d="M20.43,12.54s-.24.59-.62.26.56-.34.56-.34"/>
                <path class="cls-9" d="M20.23,12.45s-.57.29-.64-.22.65.13.65.13"/>
                <path class="cls-9" d="M20.15,12.29s-.63-.09-.4-.54.46.46.46.46"/>
                <path class="cls-9" d="M20.23,12.2s-.55-.33-.16-.66.24.61.24.61"/>
                <path class="cls-9" d="M20.35,12.12s-.43-.47,0-.67.06.65.06.65"/>
                <path class="cls-9" d="M20.41,12s-.12-.62.39-.55-.3.59-.3.59"/>
                <circle class="cls-10" cx="20.44" cy="12.29" r="0.42"/>
              </g>
              <g>
                <path class="cls-11" d="M16.7,9.83s.53.36.13.66-.21-.62-.21-.62"/>
                <path class="cls-11" d="M16.73,9.73s.64,0,.47.48-.52-.4-.52-.4"/>
                <path class="cls-11" d="M16.63,9.82s.25-.59.63-.25-.57.33-.57.33"/>
                <path class="cls-11" d="M16.64,9.55s.18-.61.59-.31-.53.39-.53.39"/>
                <path class="cls-11" d="M16.62,10s.21.6-.3.6.2-.63.2-.63"/>
                <path class="cls-11" d="M16.48,10s-.24.59-.62.26.56-.34.56-.34"/>
                <path class="cls-11" d="M16.28,9.9s-.57.29-.64-.22.65.13.65.13"/>
                <path class="cls-11" d="M16.2,9.74s-.63-.09-.4-.54.46.46.46.46"/>
                <path class="cls-11" d="M16.27,9.65s-.54-.33-.15-.66.24.61.24.61"/>
                <path class="cls-11" d="M16.4,9.57s-.43-.47,0-.67.06.65.06.65"/>
                <path class="cls-11" d="M16.46,9.48s-.12-.62.38-.55-.29.59-.29.59"/>
                <circle class="cls-10" cx="16.49" cy="9.74" r="0.42"/>
              </g>
              <g>
                <path class="cls-12" d="M11.57,12.69s.53.35.12.66-.21-.62-.21-.62"/>
                <path class="cls-12" d="M11.59,12.59s.64,0,.47.48-.52-.4-.52-.4"/>
                <path class="cls-12" d="M11.49,12.68s.25-.59.63-.25-.57.32-.57.32"/>
                <path class="cls-12" d="M11.5,12.41s.18-.61.59-.31-.53.38-.53.38"/>
                <path class="cls-12" d="M11.48,12.82s.21.6-.3.61.2-.63.2-.63"/>
                <path class="cls-12" d="M11.34,12.85s-.24.59-.62.26.56-.34.56-.34"/>
                <path class="cls-12" d="M11.14,12.76s-.57.28-.64-.22.65.13.65.13"/>
                <path class="cls-12" d="M11.06,12.59s-.63-.08-.4-.54.46.47.46.47"/>
                <path class="cls-12" d="M11.14,12.5s-.55-.33-.16-.65.24.61.24.61"/>
                <path class="cls-12" d="M11.26,12.42s-.43-.47,0-.67.06.66.06.66"/>
                <path class="cls-12" d="M11.32,12.34s-.12-.63.39-.55-.3.59-.3.59"/>
                <circle class="cls-10" cx="11.35" cy="12.6" r="0.42"/>
              </g>
              <g>
                <path class="cls-13" d="M35.29,10.83s.53.35.12.66-.21-.62-.21-.62"/>
                <path class="cls-13" d="M35.31,10.73s.64,0,.47.48-.52-.4-.52-.4"/>
                <path class="cls-13" d="M35.22,10.82s.24-.59.62-.25-.57.33-.57.33"/>
                <path class="cls-13" d="M35.22,10.55s.18-.61.59-.31-.53.38-.53.38"/>
                <path class="cls-13" d="M35.2,11s.21.6-.29.61.19-.63.19-.63"/>
                <path class="cls-13" d="M35.06,11s-.24.59-.62.26.56-.34.56-.34"/>
                <path class="cls-13" d="M34.86,10.9s-.57.29-.64-.22.65.13.65.13"/>
                <path class="cls-13" d="M34.78,10.73s-.63-.08-.4-.54.46.47.46.47"/>
                <path class="cls-13" d="M34.86,10.64s-.55-.33-.16-.65.24.61.24.61"/>
                <path class="cls-13" d="M35,10.56s-.44-.46,0-.67.06.66.06.66"/>
                <path class="cls-13" d="M35,10.48s-.12-.62.39-.55-.3.59-.3.59"/>
                <circle class="cls-10" cx="35.07" cy="10.74" r="0.42"/>
              </g>
              <g>
                <path class="cls-14" d="M41.19,10.81s.52.35.12.66-.21-.62-.21-.62"/>
                <path class="cls-14" d="M41.21,10.71s.64,0,.47.48-.52-.4-.52-.4"/>
                <path class="cls-14" d="M41.11,10.8s.25-.59.63-.25-.57.32-.57.32"/>
                <path class="cls-14" d="M41.12,10.53s.18-.61.59-.32-.53.39-.53.39"/>
                <path class="cls-14" d="M41.1,10.94s.21.6-.3.61.2-.63.2-.63"/>
                <path class="cls-14" d="M41,11s-.24.59-.62.25.56-.33.56-.33"/>
                <path class="cls-14" d="M40.76,10.88s-.57.28-.64-.22.65.12.65.12"/>
                <path class="cls-14" d="M40.68,10.71s-.63-.08-.4-.54.46.47.46.47"/>
                <path class="cls-14" d="M40.75,10.62s-.54-.33-.15-.65.24.61.24.61"/>
                <path class="cls-14" d="M40.88,10.54s-.43-.47,0-.67.06.65.06.65"/>
                <path class="cls-14" d="M40.94,10.46s-.12-.63.38-.55-.29.58-.29.58"/>
                <circle class="cls-10" cx="40.97" cy="10.72" r="0.42"/>
              </g>
              <g>
                <path class="cls-15" d="M32.84,9.34s.53.36.13.67-.21-.63-.21-.63"/>
                <path class="cls-15" d="M32.87,9.24s.64,0,.47.48-.52-.4-.52-.4"/>
                <path class="cls-15" d="M32.77,9.33s.25-.59.63-.25-.57.33-.57.33"/>
                <path class="cls-15" d="M32.78,9.07s.18-.62.59-.32-.53.39-.53.39"/>
                <path class="cls-15" d="M32.75,9.48s.22.6-.29.6.2-.62.2-.62"/>
                <path class="cls-15" d="M32.62,9.5s-.24.59-.62.26.56-.33.56-.33"/>
                <path class="cls-15" d="M32.42,9.42s-.58.28-.64-.22.64.12.64.12"/>
                <path class="cls-15" d="M32.34,9.25s-.63-.09-.4-.54.46.47.46.47"/>
                <path class="cls-15" d="M32.41,9.16s-.54-.33-.15-.65.24.61.24.61"/>
                <path class="cls-15" d="M32.54,9.08s-.43-.47,0-.67.06.65.06.65"/>
                <path class="cls-15" d="M32.6,9s-.12-.63.38-.56-.29.59-.29.59"/>
                <circle class="cls-10" cx="32.63" cy="9.25" r="0.42"/>
              </g>
              <g>
                <path class="cls-16" d="M26.49,9.44s.53.35.12.66-.21-.62-.21-.62"/>
                <path class="cls-16" d="M26.51,9.33s.64,0,.47.48-.52-.4-.52-.4"/>
                <path class="cls-16" d="M26.42,9.42s.24-.58.62-.25-.57.33-.57.33"/>
                <path class="cls-16" d="M26.42,9.16s.18-.61.6-.32-.53.39-.53.39"/>
                <path class="cls-16" d="M26.4,9.57s.22.6-.29.6.2-.62.2-.62"/>
                <path class="cls-16" d="M26.26,9.59s-.23.6-.62.26.57-.33.57-.33"/>
                <path class="cls-16" d="M26.06,9.51s-.57.28-.63-.22.64.12.64.12"/>
                <path class="cls-16" d="M26,9.34s-.63-.09-.4-.54.47.47.47.47"/>
                <path class="cls-16" d="M26.06,9.25s-.55-.33-.15-.65.23.61.23.61"/>
                <path class="cls-16" d="M26.19,9.17s-.43-.47,0-.67.06.65.06.65"/>
                <path class="cls-16" d="M26.25,9.09s-.12-.63.38-.55-.29.58-.29.58"/>
                <circle class="cls-10" cx="26.28" cy="9.34" r="0.42"/>
              </g>
              <g>
                <path class="cls-17" d="M28,7.67s.53.35.12.66S28,7.7,28,7.7"/>
                <path class="cls-17" d="M28.07,7.56s.63,0,.46.48-.52-.4-.52-.4"/>
                <path class="cls-17" d="M28,7.65s.24-.58.62-.25-.57.33-.57.33"/>
                <path class="cls-17" d="M28,7.39s.18-.61.6-.32-.53.39-.53.39"/>
                <path class="cls-17" d="M28,7.8s.22.6-.29.6.2-.62.2-.62"/>
                <path class="cls-17" d="M27.81,7.82s-.23.6-.62.26.57-.33.57-.33"/>
                <path class="cls-17" d="M27.61,7.74S27,8,27,7.52s.64.12.64.12"/>
                <path class="cls-17" d="M27.54,7.57s-.64-.09-.41-.54.47.47.47.47"/>
                <path class="cls-17" d="M27.61,7.48s-.55-.33-.15-.65.24.61.24.61"/>
                <path class="cls-17" d="M27.74,7.4s-.43-.47,0-.67.06.65.06.65"/>
                <path class="cls-17" d="M27.8,7.32s-.12-.63.38-.55-.29.58-.29.58"/>
                <circle class="cls-10" cx="27.83" cy="7.57" r="0.42"/>
              </g>
            </g>
          </g>
          <g>
            <path class="cls-18" d="M24.94,24.63a4.59,4.59,0,0,0,9.18,0"/>
            <g>
              <rect class="cls-19" x="29.41" y="26.77" width="0.5" height="2.24" rx="0.25" transform="translate(28.41 -12.81) rotate(45)"/>
              <rect class="cls-19" x="29.41" y="26.77" width="0.5" height="2.24" rx="0.25" transform="translate(70.37 26.64) rotate(135)"/>
              <rect class="cls-19" x="29.41" y="24.59" width="0.5" height="2.24" rx="0.25" transform="translate(26.87 -13.44) rotate(45)"/>
              <rect class="cls-19" x="29.41" y="24.59" width="0.5" height="2.24" rx="0.25" transform="translate(68.82 22.92) rotate(135)"/>
            </g>
          </g>
        </g>
        <path class="cls-20" d="M22.71,12.85S19.21,18.32,25,23.53a14.49,14.49,0,0,1,5.19-10.68Z"/>
        <path class="cls-7" d="M22.23,12.74s-3.51,5.47,2.25,10.69a14.5,14.5,0,0,1,5.19-10.69Z"/>
      </g>
      <g>
        <rect class="cls-21" x="46.21" y="5.27" width="1.5" height="24.08" rx="0.75" transform="translate(1.68 -4.01) rotate(4.98)"/>
        <g>
          <path class="cls-22" d="M45.93,4.37,48.35.05a.11.11,0,0,1,.19,0l1.69,4.65L47.88,9a.19.19,0,0,1-.34,0l-1.61-4.6"/>
          <polygon class="cls-23" points="48.47 0 47.34 4.18 48.81 4.93 48.47 0"/>
          <path class="cls-24" d="M50.23,4.74l-1.42.19L48.47,0a.1.1,0,0,1,.09.07Z"/>
          <path class="cls-23" d="M48.56.07A.1.1,0,0,0,48.47,0l.34,4.93,1.42-.19L47.85,9s-.06.09-.12.09,1.08-4.16,1.08-4.16"/>
          <path class="cls-25" d="M45.93,4.36l1.41-.18.28,4.9a.17.17,0,0,1-.1-.11L45.93,4.36"/>
        </g>
        <g>
          <path class="cls-26" d="M48.88,13.42a.79.79,0,1,1-1.17-1.05c.33-.37,1.34-1,1.66-.68S49.21,13.05,48.88,13.42Z"/>
          <path class="cls-27" d="M49.32,11.76s-1.45,1.11-1.55,1.6"/>
          <path class="cls-27" d="M48,12.93s.52.07.64-.09"/>
          <path class="cls-27" d="M48.59,12.37s-.14-.23,0-.39"/>
        </g>
        <g>
          <path class="cls-26" d="M46.22,16.31a.79.79,0,1,1-1,1.17c-.37-.33-1-1.34-.68-1.67S45.85,16,46.22,16.31Z"/>
          <path class="cls-27" d="M44.55,15.86s1.11,1.45,1.61,1.55"/>
          <path class="cls-27" d="M45.73,17.15s.07-.52-.09-.64"/>
          <path class="cls-27" d="M45.17,16.6s-.23.14-.39,0"/>
        </g>
        <polygon class="cls-21" points="48.34 10.23 46.82 10.1 45.93 4.37 47.73 6.02 48.16 6.05 50.23 4.72 48.34 10.23"/>
      </g>
    </g>
  </g>
</svg>
