<svg xmlns="http://www.w3.org/2000/svg" viewBox="0 0 51.08 40.88">
  <defs>
    <style>
      .cls-1 {
        fill: #21442a;
      }

      .cls-2 {
        fill: #b39471;
      }

      .cls-3 {
        fill: #3c5f42;
      }

      .cls-4, .cls-5 {
        fill: #201600;
      }

      .cls-5 {
        opacity: 0.44;
      }

      .cls-6 {
        fill: #afafaf;
      }

      .cls-7 {
        fill: #ac7468;
      }

      .cls-8 {
        fill: #c9c8c8;
      }

      .cls-9 {
        fill: #8d7559;
      }

      .cls-10 {
        fill: #392710;
      }

      .cls-11 {
        fill: #bdadd4;
      }

      .cls-12 {
        fill: #d0bcdb;
      }

      .cls-13 {
        fill: #e1d1e7;
      }

      .cls-14 {
        fill: #9f90c3;
      }

      .cls-15 {
        fill: #5f9663;
      }

      .cls-16 {
        fill: none;
        stroke: #3c5f42;
        stroke-linecap: round;
        stroke-miterlimit: 10;
        stroke-width: 0.05px;
      }

      .cls-17 {
        fill: #466c4c;
      }
    </style>
  </defs>
  <title>chel 1</title>
  <g id="Слой_2" data-name="Слой 2">
    <g id="chel_1" data-name="chel 1">
      <g>
        <g>
          <g>
            <rect class="cls-1" x="39.62" y="15.32" width="3.99" height="13.53" rx="2" transform="translate(17.78 62.73) rotate(-87.57)"/>
            <path class="cls-2" d="M46.47,20.3a2,2,0,0,1,1.91,2.08h0a2,2,0,0,1-2.08,1.9"/>
          </g>
          <rect class="cls-1" x="14.75" y="29.7" width="5.54" height="11.18" rx="2.77"/>
          <rect class="cls-1" x="30.18" y="29.7" width="5.54" height="11.18" rx="2.77"/>
          <rect class="cls-3" x="9.43" y="4.25" width="31.61" height="31.61" rx="6.91"/>
          <path class="cls-3" d="M37.67,5.23S20.88-8.39,0,10.58c8.21,0,10.26,5.34,10.26,5.34Z"/>
          <rect class="cls-2" x="19.16" y="11.79" width="20.74" height="12.84" rx="6.42"/>
          <rect class="cls-4" x="24.87" y="14.65" width="1.5" height="5.41" rx="0.75"/>
          <rect class="cls-4" x="33.88" y="14.65" width="1.5" height="5.41" rx="0.75"/>
          <path class="cls-5" d="M39.48,18.61c0,6.21-6.79,15.86-10,15.86s-10.32-10-10.32-16.26c0,0,5.07,4.07,10.6,4.07A16.3,16.3,0,0,0,39.48,18.61Z"/>
          <path class="cls-6" d="M39.9,18.21c0,6.21-6.79,15.86-10,15.86S19.16,24.42,19.16,18.21c0,0,5.49,3.67,11,3.67A16.3,16.3,0,0,0,39.9,18.21Z"/>
          <rect class="cls-7" x="27.85" y="22.09" width="4.66" height="1.44" rx="0.72"/>
          <rect class="cls-8" x="24.97" y="24.91" width="0.83" height="4.22" rx="0.41"/>
          <rect class="cls-8" x="27.85" y="27.98" width="0.83" height="4.22" rx="0.41"/>
          <rect class="cls-8" x="31.69" y="24.91" width="0.83" height="4.22" rx="0.41"/>
          <rect class="cls-9" x="29.9" y="16.88" width="1.27" height="3.53" rx="0.64"/>
          <path class="cls-6" d="M22.06,12.85c2.14-1.42,4.2-1,7.73-1.06s5.34-.25,7.16,1"/>
          <g>
            <rect class="cls-1" x="12.75" y="17.86" width="3.99" height="13.53" rx="2"/>
            <path class="cls-2" d="M16.74,29.4a2,2,0,0,1-2,2h0a2,2,0,0,1-2-2"/>
          </g>
        </g>
        <g>
          <rect class="cls-10" x="47.07" y="5.27" width="1.5" height="24.08" rx="0.75" transform="translate(1.68 -4.08) rotate(4.98)"/>
          <g>
            <path class="cls-11" d="M46.78,4.37,49.2.05a.11.11,0,0,1,.19,0l1.69,4.65L48.73,9a.19.19,0,0,1-.34,0l-1.61-4.6"/>
            <polygon class="cls-12" points="49.33 0 48.19 4.18 49.67 4.93 49.33 0"/>
            <path class="cls-13" d="M51.08,4.74l-1.41.19L49.33,0a.1.1,0,0,1,.09.07Z"/>
            <path class="cls-12" d="M49.42.07A.1.1,0,0,0,49.33,0l.34,4.93,1.41-.19L48.71,9s-.06.09-.12.09,1.08-4.16,1.08-4.16"/>
            <path class="cls-14" d="M46.78,4.36l1.41-.18.29,4.9A.2.2,0,0,1,48.37,9L46.78,4.36"/>
          </g>
          <g>
            <path class="cls-15" d="M49.73,13.42a.79.79,0,1,1-1.17-1.05c.33-.37,1.34-1,1.66-.68S50.06,13.05,49.73,13.42Z"/>
            <path class="cls-16" d="M50.18,11.76s-1.45,1.11-1.55,1.6"/>
            <path class="cls-16" d="M48.89,12.93s.52.07.64-.09"/>
            <path class="cls-16" d="M49.44,12.37s-.14-.23,0-.39"/>
          </g>
          <g>
            <path class="cls-15" d="M47.07,16.31a.84.84,0,0,1,.15,1.18.86.86,0,0,1-1.2,0c-.37-.33-1-1.34-.68-1.67S46.7,16,47.07,16.31Z"/>
            <path class="cls-16" d="M45.41,15.86s1.11,1.45,1.6,1.55"/>
            <path class="cls-16" d="M46.58,17.15s.07-.52-.09-.64"/>
            <path class="cls-16" d="M46,16.6s-.23.14-.39,0"/>
          </g>
          <polygon class="cls-10" points="49.19 10.23 47.67 10.1 46.78 4.37 48.59 6.02 49.01 6.05 51.08 4.72 49.19 10.23"/>
        </g>
      </g>
      <rect class="cls-17" x="4.99" y="5.33" width="12.99" height="2.53" rx="1.04" transform="translate(-1.52 4.07) rotate(-18.86)"/>
      <rect class="cls-17" x="32.35" y="7.83" width="7.12" height="2.53" rx="1.04" transform="translate(7.68 -14.89) rotate(26.14)"/>
    </g>
  </g>
</svg>
