<svg xmlns="http://www.w3.org/2000/svg" viewBox="0 0 173.43 43.41">
  <defs>
    <style>
      .cls-1 {
        fill: #64373c;
      }

      .cls-2 {
        fill: #543231;
      }

      .cls-3 {
        fill: #fff;
        opacity: 0.18;
        isolation: isolate;
      }

      .cls-4 {
        fill: #201600;
        opacity: 0.21;
      }

      .cls-5, .cls-6 {
        fill: #947a63;
      }

      .cls-6 {
        stroke: #806a57;
        stroke-miterlimit: 10;
      }
    </style>
  </defs>
  <title>LUCHshee tvorenie Gospoda Boga</title>
  <g id="Слой_2" data-name="Слой 2">
    <g id="LUCHshee_tvorenie_Gospoda_Boga" data-name="LUCHshee tvorenie Gospoda Boga">
      <g>
        <rect class="cls-1" x="58.09" y="-2.13" width="4.52" height="19.09" rx="2.26" transform="translate(22.92 -40.5) rotate(45)"/>
        <g>
          <path class="cls-2" d="M167.43,43.39c3.31,0,6-8,6-17.91s-2.69-17.91-6-17.91"/>
          <g>
            <g>
              <rect class="cls-2" x="6" y="7.57" width="161.43" height="35.82"/>
              <g>
                <path class="cls-1" d="M130.49,7.54A2.54,2.54,0,0,1,129,9.89c-17.17,7.73-43.16,11.49-77.26,11.18C28.13,20.86,8.61,18.66,6,18.35V13.26l.29,0c.77.09,73.85,8.87,114.93-5.71Z"/>
                <path class="cls-1" d="M6,19.26a2.35,2.35,0,0,1,.69.1h0c.13,0,13,3.86,33.13,6a254.25,254.25,0,0,0,78.92-3.76c39.74-8.47,48.35-8.93,48.69-8.95v5.08c-1.11.07-10.58.92-47.69,8.84a259.2,259.2,0,0,1-80.56,3.82A211.33,211.33,0,0,1,6,24.43V19.26Z"/>
                <path class="cls-1" d="M37,43.39C26.71,33.73,6.22,33.62,6,33.62V28.54c1,0,25.27.15,36.31,13.18a2.57,2.57,0,0,1,.61,1.67Z"/>
                <path class="cls-1" d="M77.77,43.39C79.91,40.94,89,31.25,119.7,31.25s39.39,9.42,41.74,12.14h-7.55c-4-2.55-13.94-7.07-34.19-7.07s-30.23,4.54-34.22,7.09Z"/>
              </g>
            </g>
            <path class="cls-1" d="M156,20.85c-5.79,0-10.48,3.26-10.48,7.28s4.69,7.28,10.48,7.28,10.49-3.26,10.49-7.28S161.8,20.85,156,20.85Zm0,9.84c-2,0-3.67-1.15-3.67-2.56S154,25.58,156,25.58s3.68,1.14,3.68,2.55S158,30.69,156,30.69Z"/>
          </g>
          <path class="cls-1" d="M167.43,12.68s4.1-.27,4.12-.23.58,1.86.73,2.51.44,2,.51,2.47c-.39-.06-5.36.33-5.36.33Z"/>
          <path class="cls-3" d="M167.43,7.57H79.28a3.63,3.63,0,0,0,0,7.25h93S170.74,7.66,167.43,7.57Z"/>
          <path class="cls-4" d="M167.43,36.15H41.7c-15.36,0-27.82-12.79-27.82-28.58H6V43.39H167.43c3.28-.08,4.81-7.24,4.81-7.24Z"/>
          <ellipse class="cls-5" cx="6" cy="25.48" rx="6" ry="17.91"/>
          <ellipse class="cls-6" cx="6" cy="25.48" rx="4.32" ry="15.41"/>
          <ellipse class="cls-6" cx="6" cy="25" rx="1.84" ry="10.97"/>
        </g>
      </g>
    </g>
  </g>
</svg>
