<svg xmlns="http://www.w3.org/2000/svg" viewBox="0 0 101.08 71.72">
  <defs>
    <style>
      .cls-1 {
        fill: #26482e;
      }

      .cls-2 {
        fill: #589255;
        opacity: 0.85;
      }

      .cls-3 {
        fill: #fff;
      }

      .cls-4 {
        fill: #201600;
      }

      .cls-5 {
        fill: #3d6143;
      }
    </style>
  </defs>
  <title>Слизняк покой 1</title>
  <g id="Слой_2" data-name="Слой 2">
    <g id="Слизняк_покой_1" data-name="Слизняк покой 1">
      <g>
        <g>
          <path class="cls-1" d="M50.54,0A50.54,50.54,0,0,0,0,50.54c0,27.92,22.63,20.2,50.54,20.2s50.54,7.72,50.54-20.2A50.54,50.54,0,0,0,50.54,0ZM49.37,67c-25.94,0-44.67,9-44.67-16.9s20-46,46-46,46,20,46,46S75.32,67,49.37,67Z"/>
          <path class="cls-2" d="M50.54,1.63A48.72,48.72,0,0,0,1.82,50.35c0,26.9,21.82,18.36,48.72,18.36s48.72,8.54,48.72-18.36A48.72,48.72,0,0,0,50.54,1.63Z"/>
        </g>
        <circle class="cls-1" cx="24.59" cy="33.74" r="11.54"/>
        <circle class="cls-1" cx="56.57" cy="33.89" r="11.54"/>
        <circle class="cls-3" cx="24.59" cy="33.89" r="7.97"/>
        <circle class="cls-4" cx="22.44" cy="33.89" r="3.11"/>
        <circle class="cls-3" cx="56.57" cy="33.89" r="7.97"/>
        <circle class="cls-4" cx="54.41" cy="33.89" r="3.11"/>
        <circle class="cls-5" cx="82.51" cy="47.31" r="7.12"/>
        <circle class="cls-5" cx="74.13" cy="21.95" r="4.84"/>
        <circle class="cls-5" cx="47.52" cy="15.58" r="4.1"/>
        <ellipse class="cls-5" cx="15.88" cy="55.31" rx="4.61" ry="2.95"/>
      </g>
    </g>
  </g>
</svg>
