<svg xmlns="http://www.w3.org/2000/svg" viewBox="0 0 101.08 85.74">
  <defs>
    <style>
      .cls-1 {
        fill: #26482e;
      }

      .cls-2 {
        fill: #589255;
        opacity: 0.85;
      }

      .cls-3 {
        fill: #fff;
      }

      .cls-4 {
        fill: #201600;
      }

      .cls-5 {
        fill: #3d6143;
      }
    </style>
  </defs>
  <title>Слизняк 5</title>
  <g id="Слой_2" data-name="Слой 2">
    <g id="Слизняк_5" data-name="Слизняк 5">
      <g>
        <g>
          <path class="cls-1" d="M50.54,0A50.54,50.54,0,0,0,0,50.54c0,27.92,22.63,35.2,50.54,35.2s50.54-7.28,50.54-35.2A50.54,50.54,0,0,0,50.54,0ZM49.37,82c-25.94,0-44.67-6-44.67-31.9s20-46,46-46,46,20,46,46S75.32,82,49.37,82Z"/>
          <path class="cls-2" d="M50.54,1.63A48.72,48.72,0,0,0,1.82,50.35c0,26.9,21.82,33.36,48.72,33.36s48.72-6.46,48.72-33.36A48.72,48.72,0,0,0,50.54,1.63Z"/>
        </g>
        <circle class="cls-1" cx="24.59" cy="42.88" r="11.54"/>
        <circle class="cls-1" cx="56.57" cy="43.03" r="11.54"/>
        <circle class="cls-3" cx="24.59" cy="43.03" r="7.97"/>
        <circle class="cls-4" cx="22.44" cy="43.03" r="3.11"/>
        <circle class="cls-3" cx="56.57" cy="43.03" r="7.97"/>
        <circle class="cls-4" cx="54.41" cy="43.03" r="3.11"/>
        <circle class="cls-5" cx="84.02" cy="56.05" r="7.12"/>
        <circle class="cls-5" cx="74.13" cy="25.85" r="4.84"/>
        <circle class="cls-5" cx="46.44" cy="18.93" r="4.1"/>
        <ellipse class="cls-5" cx="15.88" cy="61.21" rx="4.61" ry="2.95"/>
      </g>
    </g>
  </g>
</svg>
