<svg xmlns="http://www.w3.org/2000/svg" viewBox="0 0 89.48 63.48">
  <defs>
    <style>
      .cls-1 {
        fill: #26482e;
      }

      .cls-2 {
        fill: #589255;
        opacity: 0.85;
      }

      .cls-3 {
        fill: #fff;
      }

      .cls-4 {
        fill: #201600;
      }

      .cls-5 {
        fill: #3d6143;
      }
    </style>
  </defs>
  <title>Слизняк покой 2</title>
  <g id="Слой_2" data-name="Слой 2">
    <g id="Слизняк_покой_2" data-name="Слизняк покой 2">
      <g>
        <g>
          <path class="cls-1" d="M44.74,0A44.74,44.74,0,0,0,0,44.74C0,69.45,20,62.62,44.74,62.62s44.74,6.83,44.74-17.88A44.74,44.74,0,0,0,44.74,0Zm-1,59.32c-23,0-39.54,8-39.54-15s17.73-40.7,40.7-40.7,40.7,17.73,40.7,40.7S66.67,59.32,43.7,59.32Z"/>
          <path class="cls-2" d="M44.74,1.44A43.13,43.13,0,0,0,1.61,44.57c0,23.81,19.31,16.25,43.13,16.25s43.12,7.56,43.12-16.25A43.13,43.13,0,0,0,44.74,1.44Z"/>
        </g>
        <circle class="cls-1" cx="21.77" cy="29.87" r="10.22"/>
        <circle class="cls-1" cx="50.07" cy="30" r="10.22"/>
        <circle class="cls-3" cx="21.77" cy="30" r="7.06"/>
        <circle class="cls-4" cx="19.86" cy="30" r="2.75"/>
        <circle class="cls-3" cx="50.07" cy="30" r="7.06"/>
        <circle class="cls-4" cx="48.17" cy="30" r="2.75"/>
        <circle class="cls-5" cx="73.03" cy="41.88" r="6.3"/>
        <circle class="cls-5" cx="65.62" cy="19.43" r="4.29"/>
        <circle class="cls-5" cx="42.06" cy="13.79" r="3.63"/>
        <ellipse class="cls-5" cx="14.05" cy="48.95" rx="4.08" ry="2.61"/>
      </g>
    </g>
  </g>
</svg>
